<svg width="50" height="50" viewBox="0 0 24 24" fill="none" xmlns="http://www.w3.org/2000/svg">
  <circle cx="12" cy="12" r="10" fill="white"/>
  
  <path fill-rule="evenodd" clip-rule="evenodd" d="M12 2C6.477 2 2 6.477 2 12c0 1.89.525 3.66 1.438 5.168L2 22l4.986-1.309A9.943 9.943 0 0012 22c5.523 0 10-4.477 10-10S17.523 2 12 2zm5.383 14.85c-.232.657-1.15 1.21-1.61 1.272-.459.062-.91.243-2.924-.552-2.427-.958-3.99-3.418-4.11-3.58-.121-.161-1.01-1.343-1.01-2.56 0-1.217.635-1.815.86-2.064.225-.249.493-.311.657-.311.164 0 .328.001.47.008.148.007.348-.056.545.422.197.478.673 1.64.732 1.76.059.12.098.261.02.421-.079.16-.118.261-.237.399-.118.139-.25.31-.357.416-.118.12-.243.25-.104.49.139.239.615 1.016 1.319 1.643.906.808 1.67 1.058 1.91 1.178.239.12.38.1.522-.06.142-.161.611-.711.775-.953.164-.241.328-.201.554-.117.227.085 1.439.679 1.687.803.248.124.413.185.474.289.06.104.06.604-.173 1.261z" fill="#25D366"/>
</svg>